<svg xmlns="http://www.w3.org/2000/svg" width="24" height="24" fill="#666">
<path fill-rule="evenodd" clip-rule="evenodd" d="M0.00299835 8C0.00299835 12.414 3.586 15.998 8.001 15.998C12.415 15.998 15.999 12.414 15.999 8C15.999 3.585 12.415 0.0019989 8.001 0.0019989C3.586 0.0019989 0.00299835 3.585 0.00299835 8ZM13.2271 3.5869L13.229 3.585C13.4913 3.8972 13.7264 4.23295 13.9307 4.58828C14.5097 5.59248 14.841 6.75756 14.841 8C14.841 11.7776 11.7786 14.84 8.001 14.84C4.22337 14.84 1.161 11.7776 1.161 8C1.161 4.22238 4.22337 1.16 8.001 1.16C10.0968 1.16 11.9724 2.10256 13.2271 3.5869Z"></path>
		<path fill-rule="evenodd" clip-rule="evenodd" d="M11.5203 5.30094L13.4793 3.34193L12.6591 2.52168L10.888 4.29279C11.1314 4.62452 11.3669 4.95623 11.5203 5.30094ZM4.29209 12.5292V10.8887L2.48826 12.6925L3.3085 13.5128L4.29209 12.5292Z"></path>
		<path fill-rule="evenodd" clip-rule="evenodd" d="M10.6222 11.4196C10.6222 10.2966 10.6222 9.12982 10.6222 7.99471C10.6222 7.43581 10.6917 6.78418 10.5733 6.33134C10.3934 5.64268 9.64656 5.04592 9.42368 4.34977C9.34961 4.11858 9.29855 3.759 9.3394 3.58418H9.5326V2.5H6.46916V3.58432H6.66236C6.70307 3.75914 6.65229 4.11872 6.57822 4.34991C6.3552 5.04592 5.60841 5.64281 5.42855 6.33147C5.31023 6.78432 5.37967 7.43594 5.37967 7.99485C5.37967 9.12982 5.37967 10.2968 5.37967 11.4198C5.37967 11.9762 5.2815 12.6692 5.45319 13.0588C5.66641 13.5429 6.27841 13.499 6.94529 13.499C7.26048 13.499 7.60617 13.499 7.95418 13.499C7.9855 13.499 8.01667 13.499 8.04785 13.499C8.39613 13.499 8.74142 13.499 9.05675 13.499C9.72362 13.499 10.3358 13.5428 10.549 13.0588C10.7205 12.6691 10.6222 11.9761 10.6222 11.4196Z"></path>
</svg>