<svg xmlns="http://www.w3.org/2000/svg" width="24" height="24" fill="#666">
<path d="M876,987a8,8,0,1,0,8,8A8,8,0,0,0,876,987Zm0,14.838a6.783,6.783,0,0,1-4.4-1.61l1.576-1.578a2.813,2.813,0,0,1-.745-0.9L870.79,999.4a6.68,6.68,0,0,1-1.628-4.4A6.843,6.843,0,0,1,876,988.161a6.759,6.759,0,0,1,4.4,1.61l-0.952.953a2.613,2.613,0,0,1,.017,1.627l1.766-1.766A6.845,6.845,0,0,1,876,1001.84Zm0-9.368a0.458,0.458,0,0,0-.45.45v7.788a0.45,0.45,0,1,0,.9,0v-7.788A0.459,0.459,0,0,0,876,992.472Zm0-3.549a1.983,1.983,0,1,1-.779,1.576A2,2,0,0,1,876,988.923Zm3,2.181a1.99,1.99,0,1,1-1.593.745A2.053,2.053,0,0,1,879,991.1Zm0.19,2.666a1.929,1.929,0,0,1-.519,1.68,2.009,2.009,0,0,1-1.645.623,1.926,1.926,0,0,1,.519-1.679A1.906,1.906,0,0,1,879.186,993.77Zm0.1,2.563a1.926,1.926,0,0,1-.52,1.679,2.007,2.007,0,0,1-1.644.623,1.926,1.926,0,0,1,.519-1.679A2.006,2.006,0,0,1,879.29,996.333Zm-4.692-4.467a2,2,0,0,1,.381,1.714,1.972,1.972,0,0,1-1.592-.744,2,2,0,0,1-.381-1.714A1.945,1.945,0,0,1,874.6,991.866Zm-0.138,2.51a2.035,2.035,0,0,1,.519,1.68,2.008,2.008,0,0,1-1.644-.624,2.036,2.036,0,0,1-.52-1.679A2.009,2.009,0,0,1,874.46,994.376Zm-0.1,2.58a2.032,2.032,0,0,1,.519,1.679,2.008,2.008,0,0,1-1.644-.623,2.038,2.038,0,0,1-.52-1.679A2.006,2.006,0,0,1,874.356,996.956Z" transform="translate(-868 -987)"></path>
</svg>