<svg xmlns="http://www.w3.org/2000/svg" width="24" height="24" fill="#666">
<path d="M741.8,1030.38a6.625,6.625,0,0,1,3,1.16,5.279,5.279,0,0,0,2.2.19l-0.8,1.35a5.451,5.451,0,0,0-2.8.38,8.241,8.241,0,0,1-3,.58,2,2,0,0,1-2-1.16,11.049,11.049,0,0,1-.4-2.88v-1.15a24.683,24.683,0,0,1-.6,2.69,7.372,7.372,0,0,1-1,1.73,4.871,4.871,0,0,1-2.2,1.35,10.5,10.5,0,0,1-2.8.19,12.714,12.714,0,0,0,2.6-1.16,6.332,6.332,0,0,0,3-3.07,43.449,43.449,0,0,0,1-4.23c0.359-.24.56,0.68,0.6,1.15,0.02,0.54.2,3.08,0.2,3.08s0.091,1.92.8,2.3a5.824,5.824,0,0,0,3-.19,2.067,2.067,0,0,0,1-.38s-1.69-.97-2.6-0.58a3.162,3.162,0,0,0-1.2.77c0.04-.02.763-2.11,2-2.12h0Zm-9-3.07s-0.241,1.56.6,1.92c0.86,0.43,1.232.39,1.6,0.96a6.072,6.072,0,0,1,1,1.73,4.648,4.648,0,0,0-.4-2.5,8.328,8.328,0,0,0-2.8-2.11h0Zm-1.694-1.35,0.79-.96a3.21,3.21,0,0,0,.3.83,2.379,2.379,0,0,0,.487.52,2.491,2.491,0,0,0-.4,1.19c0,0.6.543,2.46,0.543,3.44,0,0,.023.58-0.039,1.63a2.8,2.8,0,0,1-.672,1.42,3.554,3.554,0,0,1-2.6.97,3.47,3.47,0,0,1-2-.77,1.816,1.816,0,0,1-.523-1.14,3.294,3.294,0,0,1,.185-0.95,9.24,9.24,0,0,1,.76-1.37,3.336,3.336,0,0,0-.422,2.18,2.12,2.12,0,0,0,2,.99,3.644,3.644,0,0,0,1.978-.63c0.7-.5.619-1.63,0.619-2.33a19.273,19.273,0,0,0-.359-2.45c-0.074-.47-0.41-1.52-0.46-1.8s-0.2-.77-0.2-0.77h0Z" transform="translate(-727 -1025)"></path>
</svg>