<svg xmlns="http://www.w3.org/2000/svg" width="24" height="24" fill="#666">
<path d="M738.791,957.9c-0.228-2.293-2.117-5.155-3.843-5.9,0.309,1.8-.391,4-2.654,7.342a8.579,8.579,0,0,0-.554-3.631c0.179,1.28-1.466,4.52-1.71,6.831s1.172,4.125,3.322,5.458h0.065c-1.645-2.364.57-5.991,2.085-6.738a3.476,3.476,0,0,0,1.042,3.236c-0.277-.96,1.13-1.458,1.342-1.707,0.114,1.849,1.654,2.453.417,5.1a8.27,8.27,0,0,0,3.566-4.906c0.472-1.938-.293-5.227-2.817-7.983C739.329,955.449,739.654,957.156,738.791,957.9Z" transform="translate(-730 -952)"></path>
</svg>