<svg xmlns="http://www.w3.org/2000/svg" width="24" height="24" fill="#666">
		<path fill-rule="evenodd" clip-rule="evenodd" d="M0.00299835 8C0.00299835 12.414 3.586 15.998 8.001 15.998C12.415 15.998 15.999 12.414 15.999 8C15.999 3.585 12.415 0.0019989 8.001 0.0019989C3.586 0.0019989 0.00299835 3.585 0.00299835 8ZM13.2271 3.5869L13.229 3.585C13.4913 3.8972 13.7264 4.23295 13.9307 4.58828C14.5097 5.59248 14.841 6.75756 14.841 8C14.841 11.7776 11.7786 14.84 8.001 14.84C4.22337 14.84 1.161 11.7776 1.161 8C1.161 4.22238 4.22337 1.16 8.001 1.16C10.0968 1.16 11.9724 2.10256 13.2271 3.5869Z"></path>
		<path fill-rule="evenodd" clip-rule="evenodd" d="M6.17439 10.6469L3.3085 13.5128L2.48826 12.6925L5.55741 9.62336C5.80038 9.924 5.99561 10.2512 6.17439 10.6469ZM9.82755 5.35322C10.0063 5.74887 10.2016 6.07606 10.4446 6.3767L13.4793 3.34193L12.6591 2.52168L9.82755 5.35322Z"></path>
		<path fill-rule="evenodd" clip-rule="evenodd" d="M11.1969 8.28235C11.8557 8.70373 12.3156 9.41791 12.3751 10.2579C12.475 11.6688 11.4121 12.8936 10.0011 12.9935C8.77208 13.0804 7.68458 12.2849 7.35872 11.1457L7.35707 11.1399L7.35246 11.1241C6.76757 9.09039 6.59732 8.86619 4.80272 7.71954L4.80508 7.71765C4.14628 7.29627 3.6863 6.58209 3.62691 5.74206C3.52703 4.33118 4.58985 3.10637 6.00073 3.00648C7.22991 2.91959 8.31741 3.71511 8.64327 4.85433L8.64492 4.86011L8.64953 4.87593C9.23431 6.90961 9.40468 7.13381 11.1993 8.28047L11.1969 8.28235ZM6.62765 5.07519C6.95824 5.07519 7.22623 4.80719 7.22623 4.4766C7.22623 4.14602 6.95824 3.87802 6.62765 3.87802C6.29706 3.87802 6.02907 4.14602 6.02907 4.4766C6.02907 4.80719 6.29706 5.07519 6.62765 5.07519ZM5.24125 6.53881C5.67635 6.53881 6.02907 6.18609 6.02907 5.751C6.02907 5.3159 5.67635 4.96318 5.24125 4.96318C4.80615 4.96318 4.45344 5.3159 4.45344 5.751C4.45344 6.18609 4.80615 6.53881 5.24125 6.53881ZM7.62765 5.96909C7.62765 6.24523 7.40379 6.46909 7.12765 6.46909C6.8515 6.46909 6.62765 6.24523 6.62765 5.96909C6.62765 5.69294 6.8515 5.46909 7.12765 5.46909C7.40379 5.46909 7.62765 5.69294 7.62765 5.96909Z"></path>
</svg>