<svg xmlns="http://www.w3.org/2000/svg" width="24" height="24" fill="#666">
<path xmlns="http://www.w3.org/2000/svg" d="M11.4688 4.52734C12.1789 4.65504 12.7614 5.03785 13.2166 5.67578C13.6172 6.24098 13.8904 6.95191 14.0359 7.80859C14.1636 8.59254 14.154 9.37621 14.0085 10.1602C13.79 11.4543 13.3531 12.5391 12.6977 13.4141C11.9145 14.4714 10.9315 15 9.74809 15C9.4566 15 9.13832 14.9089 8.79215 14.7266C8.55535 14.5808 8.29148 14.5078 8 14.5078C7.70852 14.5078 7.44492 14.5808 7.20785 14.7266C6.86168 14.9089 6.5434 15 6.25191 15C5.06848 15 4.08547 14.4714 3.30234 13.4141C2.64691 12.5391 2.20996 11.4543 1.99148 10.1602C1.84602 9.37621 1.83645 8.59254 1.96414 7.80859C2.10961 6.95191 2.38277 6.24098 2.78336 5.67578C3.23863 5.03785 3.82105 4.65504 4.53117 4.52734C4.96812 4.45434 5.56887 4.51832 6.33367 4.71875C6.9891 4.90113 7.54445 5.11988 7.99973 5.375C8.455 5.11988 9.01035 4.90113 9.66578 4.71875C10.4309 4.51832 11.0319 4.45434 11.4688 4.52734ZM9.96656 3.40625C9.29565 4.03037 8.36557 4.00348 7.5198 4.14003C7.48343 3.88491 7.55402 3.48828 7.59039 3.16016C7.6634 2.50391 7.87258 2.0027 8.21848 1.65625C8.47332 1.41918 8.81047 1.24609 9.2291 1.13672C9.52059 1.04566 9.83887 1 10.185 1L10.5946 1.02734L10.622 1.4375C10.622 1.78395 10.5763 2.10277 10.4855 2.39453C10.3764 2.81371 10.2036 3.15113 9.96656 3.40625Z"></path>
</svg>