<svg xmlns="http://www.w3.org/2000/svg" width="24" height="24" fill="#666">
<path d="M873.669,967.8h2.914s-0.642,1.531,1.652-3.832c6.185-3.828,4.323-7.215,3.981-11.964-5.449.687-7.159,3.727-7.057,8.5a11.906,11.906,0,0,0,3.229-1.763,4.451,4.451,0,0,0-1.8-1.872,5.787,5.787,0,0,1,2.346,1.293,5.551,5.551,0,0,0,.612-1.366,10.463,10.463,0,0,0-2-1.784c0.879-.019,1.84.966,2.267,1.178,0.022-.066.239-0.67,0.452-1.163a3.959,3.959,0,0,0-1.057-1.153,4.149,4.149,0,0,1,1.256.688,8.89,8.89,0,0,1,1.389-1.949c-1.329,3.148,1.15,7.4-5.706,9.988-0.638,1.772-.927,2.7-0.927,2.7s-0.242,0-.32,0l-3.931-10.2H868Z" transform="translate(-868 -952)"></path>
</svg>